<svg role="img" viewBox="0 0 24 24"
    xmlns="http://www.w3.org/2000/svg" class="icon">
    <title>Python</title>
    <path d="M12 .5c-1.276 0-2.406.143-3.535.423a6.353 6.353 0 00-2.196 1.03 5.125 5.125 0 00-1.293 1.495 4.193 4.193 0 00-.688 1.62 5.9 5.9 0 00-.214 1.898v2.975c0 .087.07.142.155.155h4.406c.087 0 .155-.07.155-.155V8.422c0-.085.072-.155.155-.155h4.406c.084 0 .155.07.155.155v1.313a.33.33 0 01-.094.22.33.33 0 01-.22.093H8.53a.33.33 0 01-.22-.093.33.33 0 01-.094-.22V6.875c0-.087-.07-.155-.155-.155H4.406a.155.155 0 00-.155.155v6.469a.33.33 0 00.093.22.33.33 0 00.22.093H8.53c.087 0 .155.07.155.155v1.313a6.353 6.353 0 01-1.03 2.196 5.125 5.125 0 01-1.495 1.293 4.193 4.193 0 01-1.62.688 5.9 5.9 0 01-1.898.214h-.13a.33.33 0 01-.22-.093.33.33 0 01-.093-.22V15.36c0-.087.07-.155.155-.155h4.406a.33.33 0 01.22.093.33.33 0 01.093.22v1.532a.33.33 0 01-.093.22.33.33 0 01-.22.093H4.406c-.087 0-.155.07-.155.155v2.313c0 .087.07.155.155.155h4.406c1.276 0 2.406-.143 3.535-.423a6.353 6.353 0 002.196-1.03 5.125 5.125 0 001.293-1.495 4.193 4.193 0 00.688-1.62 5.9 5.9 0 00.214-1.898V15.36c0-.087.07-.155.155-.155h4.406c.087 0 .155.07.155.155v1.31a.33.33 0 01-.093.22.33.33 0 01-.22.093H15.47a.33.33 0 01-.22-.093.33.33 0 01-.093-.22v-1.532a6.353 6.353 0 011.03-2.196 5.125 5.125 0 011.495-1.293 4.193 4.193 0 011.62-.688 5.9 5.9 0 011.898-.214h.13a.33.33 0 01.22.093.33.33 0 01.093.22V8.64a.33.33 0 01-.093.22.33.33 0 01-.22.093H19.594a.33.33 0 01-.22-.093.33.33 0 01-.093-.22V6.312a.33.33 0 01.093-.22.33.33 0 01.22-.093h2.532a.33.33 0 01.22.093.33.33 0 01.093.22V9.297c0 1.276-.143 2.406-.423 3.535a6.353 6.353 0 01-1.03 2.196 5.125 5.125 0 01-1.495 1.293 4.193 4.193 0 01-1.62.688 5.9 5.9 0 01-1.898.214h-.13a.33.33 0 01-.22-.093.33.33 0 01-.093-.22V15.36c0-.087.07-.155.155-.155h4.406a.33.33 0 01.22.093.33.33 0 01.093.22v2.532c0 .087-.07.155-.155.155h-4.406a5.9 5.9 0 01-1.898-.214 4.193 4.193 0 01-1.62-.688 5.125 5.125 0 01-1.495-1.293 6.353 6.353 0 01-1.03-2.196 5.9 5.9 0 01-.214-1.898v-.13c0-.087.07-.155.155-.155H4.406a.155.155 0 01.155.155v1.31a.33.33 0 01-.093.22.33.33 0 01-.22.093H.156a.33.33 0 01-.093-.22v-1.31C.035 13.94.05 12.81.32 11.68a6.353 6.353 0 011.03-2.196A5.125 5.125 0 012.843 8.19a4.193 4.193 0 011.62-.688 5.9 5.9 0 011.898-.214h.13c.087 0 .155.07.155.155v2.532c0 .087-.07.155-.155.155H4.406a.33.33 0 01-.22-.093.33.33 0 01-.093-.22V8.64c0-1.276.143-2.406.423-3.535a6.353 6.353 0 011.03-2.196 5.125 5.125 0 011.495-1.293 4.193 4.193 0 011.62-.688 5.9 5.9 0 011.898-.214h4.181v.13a.33.33 0 01-.093.22.33.33 0 01-.22.093H8.53c-.087 0-.155.07-.155.155v4.406c0 .087.07.155.155.155h6.781c.087 0 .155.07.155.155v1.313a.33.33 0 01-.094.22.33.33 0 01-.22.093z"/>
</svg>
