<svg role="img" viewBox="0 0 24 24" xmlns="http://www.w3.org/2000/svg" class="icon">
    <title>SQL</title>
    <path d="M12 2C6.48 2 2 4.243 2 7.086v9.828C2 19.757 6.48 22 12 22s10-2.243 10-5.086V7.086C22 4.243 17.52 2 12 2zm0 18c-4.418 0-8-1.615-8-3.086v-1.514c1.846.986 4.69 1.6 8 1.6s6.154-.614 8-1.6v1.514C20 18.385 16.418 20 12 20zm0-4c-4.418 0-8-1.615-8-3.086v-1.514c1.846.986 4.69 1.6 8 1.6s6.154-.614 8-1.6v1.514C20 14.385 16.418 16 12 16zm0-4c-4.418 0-8-1.615-8-3.086C4 7.929 7.253 6.8 10 6.8s6.154 1.129 8 2.114C20 8.385 16.418 10 12 10z"/>
</svg>